<?xml version="1.0" encoding="UTF-8" standalone="no"?>
<svg
   xmlns:serif="http://www.serif.com/"
   xmlns:dc="http://purl.org/dc/elements/1.1/"
   xmlns:cc="http://creativecommons.org/ns#"
   xmlns:rdf="http://www.w3.org/1999/02/22-rdf-syntax-ns#"
   xmlns:svg="http://www.w3.org/2000/svg"
   xmlns="http://www.w3.org/2000/svg"
   xmlns:xlink="http://www.w3.org/1999/xlink"
   xmlns:sodipodi="http://sodipodi.sourceforge.net/DTD/sodipodi-0.dtd"
   xmlns:inkscape="http://www.inkscape.org/namespaces/inkscape"
   inkscape:export-ydpi="33.529999"
   inkscape:export-xdpi="33.529999"
   inkscape:export-filename="C:\Users\mand_nc\dev\h3cpy\doc\img\h3cpy.png"
   inkscape:version="1.0 (4035a4fb49, 2020-05-01)"
   sodipodi:docname="h3cpy.svg"
   id="svg8"
   version="1.1"
   viewBox="0 0 455.26859 386.54507"
   height="386.54507mm"
   width="455.26859mm">
  <defs
     id="defs2">
    <linearGradient
       id="linearGradient1756"
       inkscape:collect="always">
      <stop
         id="stop1752"
         offset="0"
         style="stop-color:#000000;stop-opacity:1;" />
      <stop
         id="stop1754"
         offset="1"
         style="stop-color:#000000;stop-opacity:0;" />
    </linearGradient>
    <linearGradient
       id="linearGradient11301"
       inkscape:collect="always">
      <stop
         id="stop11303"
         offset="0"
         style="stop-color:#ffe052;stop-opacity:1" />
      <stop
         id="stop11305"
         offset="1"
         style="stop-color:#ffc331;stop-opacity:1" />
    </linearGradient>
    <linearGradient
       gradientUnits="userSpaceOnUse"
       y2="168.1012"
       x2="147.77737"
       y1="111.92053"
       x1="89.136749"
       id="linearGradient11307"
       xlink:href="#linearGradient11301"
       inkscape:collect="always" />
    <linearGradient
       id="linearGradient9515"
       inkscape:collect="always">
      <stop
         id="stop9517"
         offset="0"
         style="stop-color:#387eb8;stop-opacity:1" />
      <stop
         id="stop9519"
         offset="1"
         style="stop-color:#366994;stop-opacity:1" />
    </linearGradient>
    <linearGradient
       gradientUnits="userSpaceOnUse"
       y2="131.85291"
       x2="110.14919"
       y1="77.070274"
       x1="55.549179"
       id="linearGradient9521"
       xlink:href="#linearGradient9515"
       inkscape:collect="always" />
    <linearGradient
       gradientUnits="userSpaceOnUse"
       y2="444.48804"
       x2="-348.05511"
       y1="961.3443"
       x1="-70.461784"
       id="linearGradient1758"
       xlink:href="#linearGradient1756"
       inkscape:collect="always" />
  </defs>
  <sodipodi:namedview
     fit-margin-bottom="0"
     fit-margin-right="0"
     fit-margin-left="0"
     fit-margin-top="0"
     inkscape:window-maximized="1"
     inkscape:window-y="-9"
     inkscape:window-x="1911"
     inkscape:window-height="1721"
     inkscape:window-width="3200"
     showgrid="false"
     inkscape:document-rotation="0"
     inkscape:current-layer="layer1"
     inkscape:document-units="mm"
     inkscape:cy="-189.47173"
     inkscape:cx="2790.2439"
     inkscape:zoom="0.41"
     inkscape:pageshadow="2"
     inkscape:pageopacity="0.0"
     borderopacity="1.0"
     bordercolor="#666666"
     pagecolor="#ffffff"
     id="base" />
  <metadata
     id="metadata5">
    <rdf:RDF>
      <cc:Work
         rdf:about="">
        <dc:format>image/svg+xml</dc:format>
        <dc:type
           rdf:resource="http://purl.org/dc/dcmitype/StillImage" />
        <dc:title></dc:title>
      </cc:Work>
    </rdf:RDF>
  </metadata>
  <g
     transform="translate(533.12219,-366.83033)"
     id="layer1"
     inkscape:groupmode="layer"
     inkscape:label="Ebene 1">
    <polygon
       transform="matrix(48.834911,-8.7695911,8.7695911,48.834911,-2013.2908,1509.6136)"
       id="polygon6"
       style="display:inline;fill:#ffffff;stroke:#000000;stroke-width:0.03325536;stroke-miterlimit:4;stroke-dasharray:none;stroke-opacity:1;fill-opacity:1"
       points="36.297011,-12.141664 38.079907,-11.843093 38.689856,-10.17445 37.543405,-8.8031954 35.777738,-9.0850963 35.142075,-10.754614 " />
    <polygon
       transform="matrix(48.834911,-8.7695911,8.7695911,48.834911,-2013.2908,1509.6136)"
       id="polygon10"
       style="display:inline;fill:#ffffff;stroke:#000000;stroke-width:0.03325536;stroke-miterlimit:4;stroke-dasharray:none;stroke-opacity:1;fill-opacity:1"
       points="34.348791,-17.178754 36.186504,-16.87583 36.828352,-15.197242 35.658189,-13.820264 33.839923,-14.110798 33.173278,-15.790435 " />
    <g
       transform="translate(-819.30567,264.41158)"
       id="g1693">
      <path
         id="polygon16-3"
         style="display:inline;fill:#ade6ff;fill-opacity:1;stroke:#000000;stroke-width:0.75;stroke-miterlimit:4;stroke-dasharray:none;stroke-opacity:1"
         d="m 562.11407,179.15881 -67.69663,0.29146 -6.61615,10.32132 -2.26808,22.67873 3.78013,15.875 -20.41062,17.38704 -7.55976,15.11898 1.51204,8.31525 6.04772,14.36346 9.07126,18.8986 -5.68595,31.01877 49.85121,-0.58599 c -1.46622,-4.8845 -2.58795,-8.51009 -2.58795,-8.51009 l -3.02357,-17.38704 3.77959,-15.875 15.875,-9.82731 9.82732,9.82731 15.96387,41.30342 26.28781,-45.13109 c -1.33998,-0.4353 -2.18644,-0.70798 -2.18644,-0.70798 L 562.64065,276.70634 558.105,256.2957 c 0,0 1.51154,-9.07151 -3.78013,-11.33936 -5.29166,-2.26785 -14.36293,-8.31524 -14.36293,-8.31524 0,0 -11.33909,-1.51239 -8.31527,-9.82785 3.02382,-8.31548 9.07129,-18.89857 9.07129,-18.89857 l 8.31525,-4.53565 21.06281,-10.53166 z" />
      <path
         d="m 493.88827,179.97944 -22.63791,0.0971 -45.06907,77.50638 45.91761,76.37209 89.68548,-1.05471 44.71614,-76.76846 -36.83238,-63.16615 -20.82406,10.41228 -8.31524,4.53565 c 0,0 -6.04748,10.5831 -9.0713,18.89858 -3.02381,8.31546 8.31528,9.82782 8.31528,9.82782 0,0 9.07126,6.04742 14.36293,8.31527 5.29166,2.26785 3.78013,11.33935 3.78013,11.33935 l 4.53564,20.41065 23.43423,9.82728 c 0,0 0.84645,0.27268 2.18644,0.70798 l -26.28781,45.13109 -15.96388,-41.30342 -9.82731,-9.82731 -15.875,9.82731 -3.77963,15.875 3.02361,17.38707 c 0,0 1.12172,3.62556 2.58794,8.51006 l -49.85121,0.58602 5.68595,-31.0188 -9.07129,-18.89858 -6.04769,-14.36346 -1.51204,-8.31524 7.55973,-15.11898 20.41065,-17.38707 -3.78013,-15.875 2.26809,-22.67871 z"
         style="display:inline;fill:#83e166;fill-opacity:1;stroke:#000000;stroke-width:0.75;stroke-miterlimit:4;stroke-dasharray:none;stroke-opacity:1"
         id="polygon16-8-8" />
    </g>
    <path
       d="m -257.52102,597.31199 -89.68591,1.05458 -45.91745,-76.37208 45.06927,-77.50644 90.67448,-0.38966 44.57547,76.44494 z"
       style="display:inline;fill:url(#linearGradient1758);fill-opacity:1;stroke:none;stroke-width:2.34978;stroke-miterlimit:4;stroke-dasharray:none;stroke-opacity:1"
       id="polygon16-8" />
    <g
       transform="matrix(0.7314789,0,0,0.7314789,-515.30408,355.17558)"
       id="g1894">
      <path
         id="path8615"
         d="M 99.75,67.46875 C 71.718268,67.468752 73.46875,79.625 73.46875,79.625 L 73.5,92.21875 h 26.75 V 96 H 62.875 c 0,0 -17.9375,-2.034276 -17.9375,26.25 -2e-6,28.28427 15.65625,27.28125 15.65625,27.28125 h 9.34375 v -13.125 c 0,0 -0.503652,-15.65625 15.40625,-15.65625 15.9099,0 26.53125,0 26.53125,0 0,0 14.90625,0.24096 14.90625,-14.40625 0,-14.647206 0,-24.21875 0,-24.21875 0,-2e-6 2.26318,-14.65625 -27.03125,-14.65625 z M 85,75.9375 c 2.661429,-2e-6 4.8125,2.151071 4.8125,4.8125 2e-6,2.661429 -2.151071,4.8125 -4.8125,4.8125 -2.661429,2e-6 -4.8125,-2.151071 -4.8125,-4.8125 -2e-6,-2.661429 2.151071,-4.8125 4.8125,-4.8125 z"
         style="color:#000000;display:inline;overflow:visible;visibility:visible;opacity:1;fill:url(#linearGradient9521);fill-opacity:1;fill-rule:nonzero;stroke:none;stroke-width:1;stroke-linecap:butt;stroke-linejoin:miter;stroke-miterlimit:4;stroke-dasharray:none;stroke-dashoffset:0;stroke-opacity:1;marker:none;marker-start:none;marker-mid:none;marker-end:none" />
      <path
         style="color:#000000;display:inline;overflow:visible;visibility:visible;opacity:1;fill:url(#linearGradient11307);fill-opacity:1;fill-rule:nonzero;stroke:none;stroke-width:1;stroke-linecap:butt;stroke-linejoin:miter;stroke-miterlimit:4;stroke-dasharray:none;stroke-dashoffset:0;stroke-opacity:1;marker:none;marker-start:none;marker-mid:none;marker-end:none"
         d="m 100.5461,177.31485 c 28.03174,0 26.28125,-12.15625 26.28125,-12.15625 l -0.0312,-12.59375 h -26.75 v -3.78125 h 37.375 c 0,0 17.9375,2.03427 17.9375,-26.25001 10e-6,-28.284267 -15.65625,-27.281247 -15.65625,-27.281247 h -9.34375 v 13.124997 c 0,0 0.50366,15.65625 -15.40625,15.65625 -15.909902,0 -26.531252,0 -26.531252,0 0,0 -14.90625,-0.24096 -14.90625,14.40626 0,14.6472 0,24.21875 0,24.21875 0,0 -2.26318,14.65625 27.031252,14.65625 z m 14.75,-8.46875 c -2.66143,0 -4.8125,-2.15107 -4.8125,-4.8125 0,-2.66143 2.15107,-4.8125 4.8125,-4.8125 2.66143,0 4.8125,2.15107 4.8125,4.8125 1e-5,2.66143 -2.15107,4.8125 -4.8125,4.8125 z"
         id="path8620" />
    </g>
    <g
       transform="matrix(0.09980553,0,0,0.09980553,-364.4993,638.66084)"
       id="g927"
       style="clip-rule:evenodd;fill-rule:evenodd;stroke-linejoin:round;stroke-miterlimit:1.41421">
      <g
         id="Layer-1"
         serif:id="Layer 1">
        <g
   transform="translate(1009.4,506.362)"
   id="g865">
            <path
   d="m 0,-7.203 -12.072,-25.006 c 0.063,-0.947 0.111,-1.898 0.111,-2.853 0,-28.346 -29.478,-54.471 -79.069,-75.389 v 17.393 c -4.836,-1.919 -9.871,-3.787 -15.117,-5.593 v -8.108 c -70.874,-25.56 -176.383,-41.778 -294.241,-41.778 -102.973,0 -196.529,12.38 -265.791,32.554 v 28.246 h -0.002 v -34.188 c -70.96,22.55 -114.954,53.877 -114.954,88.515 0,5.46 1.101,10.838 3.217,16.113 l -7.228,12.867 c 0,0 -5.792,7.512 4.406,23.362 8.994,13.977 54.048,68.685 77.827,97.335 10.214,14.687 17.141,23.734 17.746,22.859 0.955,-1.386 -6.351,-28.961 -26.635,-60.423 -9.466,-16.895 -20.768,-39.283 -27.554,-55.819 18.942,11.99 130.23,68.029 357.232,67.801 231.994,-0.232 335.115,-72.851 346.433,-82.737 -3.955,15.889 -17.468,48.033 -28.245,70.638 -17.706,32.331 -24.12,60.478 -23.296,61.87 0.524,0.878 6.565,-8.441 15.476,-23.543 C -51.025,87.37 -11.739,30.974 -3.889,16.608 5.007,0.323 0,-7.203 0,-7.203"
   style="fill:#a52b00;fill-rule:nonzero"
   id="path863" />

        </g>

        <g
   transform="translate(1079.49,294.885)"
   id="g869">
            <path
   d="m 0,204.135 -79.343,-58.446 c -0.745,-2.6 -1.49,-5.201 -2.26,-7.781 l 26.062,-37.754 c 2.66,-3.84 3.196,-8.832 1.469,-13.211 -1.731,-4.358 -5.515,-7.482 -9.99,-8.247 l -44.066,-7.479 c -1.709,-3.485 -3.498,-6.916 -5.294,-10.319 L -94.907,18.51 c 1.903,-4.317 1.505,-9.335 -1.022,-13.254 -2.517,-3.937 -6.786,-6.237 -11.338,-6.058 l -44.724,1.625 c -2.315,-3.016 -4.667,-6.003 -7.067,-8.937 l 10.278,-45.432 c 1.042,-4.612 -0.274,-9.443 -3.487,-12.794 -3.195,-3.339 -7.838,-4.722 -12.253,-3.639 l -43.562,10.709 c -2.82,-2.493 -5.688,-4.953 -8.588,-7.365 l 1.567,-46.641 c 0.168,-4.721 -2.033,-9.208 -5.812,-11.829 -3.777,-2.636 -8.57,-3.032 -12.701,-1.074 l -40.638,19.321 c -3.273,-1.878 -6.565,-3.737 -9.892,-5.537 l -7.181,-45.961 c -0.729,-4.656 -3.724,-8.612 -7.919,-10.418 -4.185,-1.817 -8.976,-1.228 -12.648,1.536 l -36.232,27.185 c -3.569,-1.185 -7.153,-2.32 -10.779,-3.407 l -15.617,-43.585 c -1.588,-4.443 -5.25,-7.706 -9.716,-8.624 -4.45,-0.909 -9.028,0.632 -12.114,4.08 l -30.499,34.119 c -3.685,-0.423 -7.377,-0.81 -11.076,-1.131 l -23.549,-39.676 c -2.384,-4.018 -6.597,-6.464 -11.139,-6.464 -4.529,0 -8.75,2.446 -11.118,6.464 l -23.555,39.676 c -3.701,0.321 -7.408,0.708 -11.088,1.131 l -30.499,-34.119 c -3.09,-3.448 -7.684,-4.989 -12.122,-4.08 -4.46,0.93 -8.128,4.181 -9.707,8.624 l -15.629,43.585 c -3.621,1.087 -7.205,2.23 -10.78,3.407 l -36.22,-27.185 c -3.683,-2.774 -8.478,-3.361 -12.668,-1.536 -4.181,1.806 -7.188,5.762 -7.913,10.418 l -7.186,45.961 c -3.322,1.8 -6.614,3.649 -9.895,5.537 l -40.634,-19.321 c -4.127,-1.966 -8.945,-1.562 -12.704,1.074 -3.773,2.621 -5.98,7.108 -5.81,11.829 l 1.562,46.641 c -2.894,2.412 -5.756,4.872 -8.591,7.365 l -43.554,-10.709 c -4.423,-1.074 -9.062,0.3 -12.265,3.639 -3.221,3.351 -4.526,8.182 -3.491,12.794 l 10.257,45.432 c -2.378,2.945 -4.733,5.921 -7.042,8.937 l -44.724,-1.625 c -4.513,-0.135 -8.821,2.121 -11.343,6.058 -2.527,3.919 -2.91,8.937 -1.029,13.254 l 18.528,42.388 c -1.799,3.403 -3.586,6.834 -5.309,10.319 l -44.063,7.479 c -4.479,0.754 -8.252,3.876 -9.994,8.247 -1.728,4.379 -1.167,9.371 1.474,13.211 l 26.066,37.754 c -0.201,0.667 -0.387,1.339 -0.587,2.008 l -73.696,78.285 c 0,0 -11.296,8.851 5.147,29.654 14.5,18.351 88.951,91.096 128.271,129.205 16.606,19.348 27.984,31.329 29.172,30.293 1.876,-1.645 -7.972,-36.847 -40.682,-78.149 -25.216,-37.056 -57.941,-94.049 -50.267,-100.618 0,0 8.729,-11.081 26.242,-19.057 0.641,0.512 -0.662,-0.507 0,0 0,0 369.595,170.491 712.429,2.884 39.164,-7.025 62.873,13.955 62.873,13.955 8.176,4.74 -12.996,63.344 -30.407,102.137 -23.679,44.05 -27.151,78.422 -25.144,79.614 1.268,0.757 9.883,-12.353 22.172,-33.217 C -67.814,332.649 -10.492,252.1 0,232.534 11.895,210.352 0,204.135 0,204.135"
   style="fill:#f74c00;fill-rule:nonzero"
   id="path867" />

        </g>

        <g
   transform="translate(917.896,244.679)"
   id="g873">
            <path
   d="m 0,232.466 c 0,0 53.179,-2.466 123.032,-73.462 l 9.898,-21.979 c 0,0 -108.417,-107.848 60.118,-182.291 0,0 -14.755,24.112 -10.426,117.272 0,0 50.815,-17.649 65.714,-99.94 0,0 74.12,97.724 -80.502,189.377 0,0 -72.54,116.289 -174.805,105.15 z"
   style="fill:#f74c00;fill-rule:nonzero"
   id="path871" />

        </g>

        <g
   transform="translate(676.997,488.361)"
   id="g877">
            <path
   d="m 0,-78.192 c 0,0 36.935,-40.443 73.871,0 0,0 29.022,53.927 0,80.887 0,0 -47.487,37.748 -73.871,0 0,0 -31.658,-29.659 0,-80.887"
   style="fill-rule:nonzero"
   id="path875" />

        </g>

        <g
   transform="translate(719.761,425.169)"
   id="g881">
            <path
   d="m 0,0.004 c 0,15.746 -9.282,28.514 -20.732,28.514 -11.448,0 -20.73,-12.768 -20.73,-28.514 0,-15.75 9.282,-28.518 20.73,-28.518 C -9.282,-28.514 0,-15.746 0,0.004"
   style="fill:#ffffff;fill-rule:nonzero"
   id="path879" />

        </g>

        <g
   transform="translate(512.148,482.736)"
   id="g885">
            <path
   d="m 0,-83.609 c 0,0 63.355,-28.052 80.648,34.562 0,0 18.114,72.98 -52.03,77.099 0,0 -89.444,-17.228 -28.618,-111.661"
   style="fill-rule:nonzero"
   id="path883" />

        </g>

        <g
   transform="translate(543.968,426.204)"
   id="g889">
            <path
   d="m 0,0.002 c 0,16.239 -9.572,29.409 -21.381,29.409 -11.804,0 -21.379,-13.17 -21.379,-29.409 0,-16.244 9.575,-29.411 21.379,-29.411 C -9.572,-29.409 0,-16.242 0,0.002"
   style="fill:#ffffff;fill-rule:nonzero"
   id="path887" />

        </g>

        <g
   transform="translate(593.317,576.574)"
   id="g893">
            <path
   d="m 0,-40.271 80.796,-6.484 c 0,0 -2.738,13.006 -13.279,22.769 0,0 -27.79,30.47 -59.673,-2.533 0,0 -5.217,-5.629 -7.844,-13.752"
   style="fill-rule:nonzero"
   id="path891" />

        </g>

        <g
   transform="translate(269.796,270.778)"
   id="g897">
            <path
   d="m 0,190.741 c -0.667,0 -1.321,0.049 -1.973,0.101 -26.234,-5.971 -99.973,-25.185 -119.464,-56.363 0,0 99.227,-112.872 -55.86,-185.019 l 18.057,124.878 c 0,0 -47.809,-31.949 -58.126,-101.346 0,0 -116.423,84.494 51.384,165.474 0,0 15.22,57.187 161.349,102.815 l 0.107,-0.435 c 1.471,0.272 2.977,0.435 4.526,0.435 13.808,0 25.003,-11.312 25.003,-25.271 0,-13.956 -11.195,-25.269 -25.003,-25.269"
   style="fill:#f74c00;fill-rule:nonzero"
   id="path895" />

        </g>

    </g>
    </g>
    <polygon
       transform="matrix(48.834911,-8.7695911,8.7695911,48.834911,-2013.2908,1509.6136)"
       id="polygon8"
       style="display:inline;fill:#ffffff;stroke:#000000;stroke-width:0.03325536;stroke-miterlimit:4;stroke-dasharray:none;stroke-opacity:1;fill-opacity:1"
       points="39.803216,-16.229007 41.575805,-15.887814 42.158083,-14.220424 40.998105,-12.886082 39.240431,-13.206694 38.62849,-14.881959 " />
    <polygon
       transform="matrix(48.834911,-8.7695911,8.7695911,48.834911,-2013.2908,1509.6136)"
       id="polygon16"
       style="display:inline;fill:none;stroke:#000000;stroke-width:0.03325536;stroke-miterlimit:4;stroke-dasharray:none;stroke-opacity:1"
       points="36.828352,-15.197242 38.62849,-14.881959 39.240431,-13.206694 38.079907,-11.843093 36.297011,-12.141664 35.658189,-13.820264 " />
    <g
       transform="matrix(0.90075469,0,0,0.90075469,-14.76561,43.19111)"
       id="g1613">
      <path
         id="path1020"
         fill="#ff0000"
         d="m -213.52347,474.29608 h 10.15601 v 10.15601 h -10.15601 z"
         style="stroke-width:10.156" />
      <path
         id="path1022"
         fill="#ffcc00"
         d="m -213.52347,403.20401 h 10.15601 v 71.09207 h -10.15601 z m 20.31202,0 h 10.15602 v 81.24808 h -10.15602 z m 20.31202,0 h 10.15601 v 81.24808 h -10.15601 z m 20.31202,0 h 10.15601 v 81.24808 h -10.15601 z m 20.31202,33.00703 h 10.15602 v 15.23402 h -10.15602 z"
         style="stroke-width:10.156" />
    </g>
  </g>
</svg>
